<svg width="201" height="153" viewBox="0 0 201 153" fill="none" xmlns="http://www.w3.org/2000/svg">
<g filter="url(#filter0_d_1_21)">
<ellipse cx="165.379" cy="101.366" rx="10.3788" ry="10.366" fill="#79FFE1"/>
<path d="M57.5735 21.062C64.0456 21.062 69.7513 22.3803 74.6906 25.017C79.6298 27.6537 83.462 31.3961 86.1871 36.2442C88.9122 41.0923 90.2748 46.7059 90.2748 53.085V81.6634C90.2748 89.2333 88.231 95.6549 84.1433 100.928C80.0556 106.117 74.4351 109.561 67.2817 111.262C66.9411 111.347 66.7708 111.56 66.7708 111.9V122.362C66.7708 122.787 66.6004 123.128 66.2598 123.383C66.0043 123.723 65.6637 123.893 65.2379 123.893H50.2924C49.8666 123.893 49.4834 123.723 49.1427 123.383C48.8873 123.128 48.7595 122.787 48.7595 122.362V112.028C48.7595 111.688 48.5892 111.475 48.2486 111.39C41.0952 109.689 35.432 106.202 31.2592 100.928C27.0864 95.6549 25 89.2333 25 81.6634V53.085C25 46.7059 26.3626 41.1349 29.0877 36.3718C31.8128 31.5237 35.6449 27.7813 40.5842 25.1446C45.5235 22.4228 51.1866 21.062 57.5735 21.062ZM72.2635 52.192C72.2635 47.514 70.901 43.729 68.1759 40.8372C65.5359 37.9453 62.0018 36.4994 57.5735 36.4994C53.2304 36.4994 49.6963 37.9453 46.9712 40.8372C44.3312 43.729 43.0112 47.514 43.0112 52.192V81.2807C43.0112 85.9587 44.3312 89.7436 46.9712 92.6355C49.6963 95.5273 53.2304 96.9733 57.5735 96.9733C62.0018 96.9733 65.5359 95.5273 68.1759 92.6355C70.901 89.7436 72.2635 85.9587 72.2635 81.2807V52.192Z" fill="white"/>
<path d="M137.168 21.0615C142.789 21.0615 147.728 22.2098 151.986 24.5062C156.244 26.8027 159.523 30.0773 161.822 34.3301C164.206 38.4977 165.399 43.3033 165.399 48.7468C165.399 54.1053 164.164 58.8258 161.694 62.9084C159.31 66.9911 155.903 70.1806 151.475 72.4771C147.132 74.6885 142.107 75.7942 136.402 75.7942H118.263C117.837 75.7942 117.624 76.0068 117.624 76.4321V108.966C117.624 109.391 117.454 109.774 117.113 110.114C116.858 110.369 116.517 110.497 116.091 110.497H101.146C100.72 110.497 100.337 110.369 99.996 110.114C99.7406 109.774 99.6128 109.391 99.6128 108.966V22.5925C99.6128 22.1672 99.7406 21.827 99.996 21.5719C100.337 21.2316 100.72 21.0615 101.146 21.0615H137.168ZM134.486 61.3774C138.403 61.3774 141.554 60.2717 143.938 58.0603C146.323 55.7638 147.515 52.7869 147.515 49.1296C147.515 45.3872 146.323 42.3677 143.938 40.0712C141.554 37.7748 138.403 36.6265 134.486 36.6265H118.263C117.837 36.6265 117.624 36.8392 117.624 37.2644V60.7395C117.624 61.1648 117.837 61.3774 118.263 61.3774H134.486Z" fill="white"/>
</g>
<defs>
<filter id="filter0_d_1_21" x="0" y="0.0615234" width="200.758" height="152.832" filterUnits="userSpaceOnUse" color-interpolation-filters="sRGB">
<feFlood flood-opacity="0" result="BackgroundImageFix"/>
<feColorMatrix in="SourceAlpha" type="matrix" values="0 0 0 0 0 0 0 0 0 0 0 0 0 0 0 0 0 0 127 0" result="hardAlpha"/>
<feOffset dy="4"/>
<feGaussianBlur stdDeviation="12.5"/>
<feComposite in2="hardAlpha" operator="out"/>
<feColorMatrix type="matrix" values="0 0 0 0 0 0 0 0 0 0 0 0 0 0 0 0 0 0 0.5 0"/>
<feBlend mode="normal" in2="BackgroundImageFix" result="effect1_dropShadow_1_21"/>
<feBlend mode="normal" in="SourceGraphic" in2="effect1_dropShadow_1_21" result="shape"/>
</filter>
</defs>
</svg>
